<?xml version="1.0" encoding="UTF-8"?>
<svg width="841.89pt" version="1.1" xmlns="http://www.w3.org/2000/svg" height="595.276pt" viewBox="0 0 841.89 595.276" xmlns:xlink="http://www.w3.org/1999/xlink">
 <defs/>
 <g id="Hintergrund">
  <path style="fill:#171715; fill-rule:evenodd;stroke:none;" d="M134.095 288.557 L134.095 260.795 C124.584 260.172 115.07 259.081 106.967 253.623 C101.985 248.008 101.985 248.008 98.3882 244.417 C93.0873 240.672 87.3187 238.024 81.3951 235.688 C72.5048 229.287 68.1377 215.098 74.6848 205.426 C81.5505 199.656 82.0178 199.811 90.8995 199.811 C92.6189 200.59 93.8654 201.057 95.7343 201.057 C96.6752 199.811 96.5198 193.417 96.3633 189.827 L96.3633 186.549 L126.762 186.549 C126.919 183.122 128.009 179.377 130.351 177.197 C132.376 170.796 128.795 163.934 128.164 157.541 C127.386 155.204 127.696 152.705 129.106 150.368 C131.286 145.228 133.466 140.54 131.441 134.77 C129.262 132.581 130.818 129.934 132.843 128.213 C141.111 124.631 141.111 124.631 142.044 124.008 C143.445 122.287 144.076 121.664 146.254 121.353 C150.778 117.295 159.192 116.672 162.315 111.368 C161.224 100.919 150.778 97.1795 146.411 88.5974 C144.387 79.5487 155.293 74.5572 159.815 68.1637 C164.339 64.4254 169.336 61.3031 174.318 58.0245 L179.465 58.0245 C189.132 62.7121 198.178 70.1958 206.282 77.2127 C207.217 78.9261 206.905 80.328 206.905 82.2046 C209.715 85.9504 207.995 87.041 206.126 90.9341 C202.39 96.0896 198.8 101.074 195.056 106.221 C194.279 109.499 194.589 110.279 196.458 111.213 C197.71 111.836 198.334 111.992 199.268 112.934 C201.292 114.802 204.101 115.425 205.503 117.926 C207.06 120.574 207.995 120.574 211.738 121.041 C213.451 121.975 214.705 122.13 216.573 122.753 C220.162 124.008 222.03 126.967 225.307 129 C226.864 129.934 227.487 129.777 227.487 131.803 C227.643 133.673 227.798 135.393 226.085 136.639 C225.929 140.54 225.307 146.31 227.02 148.647 C228.733 150.991 230.142 152.393 228.888 156.294 C227.643 159.876 226.708 162.999 227.954 170.639 C229.044 178.917 229.829 177.197 231.542 179.065 C234.034 180.156 234.189 184.212 233.566 186.549 L261.948 186.549 L261.948 187.172 L262.26 187.172 L262.26 200.59 C263.506 200.59 264.751 200.433 266.153 200.433 C287.513 193.884 295.002 211.982 281.901 227.885 C278.631 231.942 274.576 232.877 270.52 235.999 C263.506 241.147 260.229 248.008 255.395 254.089 C250.559 260.172 236.688 259.861 229.356 258.458 L229.356 288.557 L225.151 288.557 L225.151 261.106 L138.611 261.106 L138.611 288.557 L134.095 288.557 Z M137.21 257.524 C137.21 257.056 137.21 256.737 137.366 256.271 C143.912 249.878 144.698 248.786 145.632 248.164 C148.747 248.164 151.556 249.098 154.678 249.098 C158.726 248.475 162.16 247.852 166.215 248.008 C169.336 251.91 173.54 254.246 178.374 255.492 C179.619 256.426 179.775 256.582 178.842 257.524 L137.21 257.524 Z M187.419 257.524 C187.108 255.336 188.198 254.557 189.443 253.778 C192.247 252.064 193.499 250.5 195.524 247.852 C202.077 248.631 203.946 248.008 209.559 244.886 C213.926 244.886 215.795 249.098 219.072 251.91 C220.784 252.844 227.954 255.803 221.718 257.369 C210.338 257.369 198.8 257.369 187.419 257.524 Z M180.087 248.008 C180.554 243.795 183.053 239.27 181.177 233.5 C180.398 233.5 179.619 233.344 178.842 233.344 C174.942 235.532 170.419 246.918 169.951 246.918 C167.616 239.581 169.951 234.901 174.475 229.132 C174.63 228.982 180.242 224.763 176.661 224.451 C174.163 226.172 172.606 226.327 170.108 227.418 C164.806 230.073 159.971 236.935 154.982 236.467 C150.311 235.999 150.311 233.033 151.401 229.444 C152.343 226.172 152.179 222.581 153.269 219.467 C154.515 215.254 157.636 215.877 161.224 215.877 C171.671 219.779 182.43 219.622 193.343 217.746 C199.735 215.41 196.925 220.245 198.178 224.295 C198.8 226.638 200.046 228.82 200.825 230.696 C200.668 235.213 197.08 232.41 195.056 230.696 C192.877 228.508 190.845 226.172 188.353 224.295 C185.545 221.958 186.945 223.828 187.575 226.172 C193.499 231.164 195.368 236.779 194.279 244.886 C189.912 241.302 190.845 231.942 185.395 232.253 C183.675 237.246 186.322 245.359 180.087 248.008 Z M158.726 246.918 C157.17 245.197 156.546 241.302 157.948 239.426 C162.471 239.426 161.692 242.081 160.914 245.982 C160.128 246.606 160.128 246.606 158.726 246.918 Z M211.738 238.647 C208.78 236.935 206.905 234.434 205.503 231.63 C203.946 228.67 202.39 224.606 201.447 221.492 C201.135 220.402 201.135 219.303 201.758 218.057 C204.881 217.123 214.549 214.787 216.105 218.213 C216.105 222.269 215.795 223.672 215.795 229.754 C217.507 235.213 218.13 238.18 211.738 238.647 Z M146.254 235.844 C143.601 233.966 139.552 235.844 137.833 232.566 C137.677 229.598 137.521 226.638 137.21 223.672 C136.276 221.646 132.687 218.213 134.874 216.033 C139.086 216.655 144.387 218.992 149.37 219.467 L149.37 223.361 C146.877 227.885 147.812 230.229 148.59 235.057 C148.436 235.213 148.279 235.376 148.123 235.688 C147.5 235.688 146.877 235.844 146.254 235.844 Z M127.696 234.434 C118.815 232.566 107.279 230.229 98.699 228.197 C89.9656 226.172 77.1834 216.344 85.2867 207.139 C87.9418 205.737 94.332 205.581 96.2016 208.23 C96.2016 209.482 96.3633 211.196 96.3633 212.598 C97.7652 212.598 99.0109 212.294 100.412 212.443 C109.614 212.91 124.427 213.532 130.351 221.646 C133.154 229.132 136.898 236.622 127.696 234.434 Z M226.864 233.189 C221.251 232.098 222.185 229.909 220.628 225.237 C220.162 223.361 219.383 221.492 218.761 219.467 C218.761 214.007 224.684 215.254 228.577 215.254 C231.075 214.155 233.411 213.221 236.066 212.598 C244.793 212.598 253.527 212.598 262.26 212.755 L262.26 206.049 C263.817 205.737 265.374 205.581 267.087 205.27 C281.59 205.893 277.378 220.868 268.503 224.451 C264.907 225.86 259.45 227.106 256.335 229.132 C248.069 234.589 236.844 232.877 226.864 233.189 Z M99.4783 190.762 L258.827 190.762 L258.827 209.163 L99.4783 209.163 L99.4783 190.762 Z M137.054 179.065 C141.421 178.294 145.632 177.819 149.525 176.098 C152.179 176.098 152.179 176.565 151.09 178.917 C150.311 180.623 149.37 182.188 149.058 184.212 C146.877 184.992 144.076 184.524 141.733 184.524 C140.487 184.992 139.398 185.458 138.455 186.082 C136.587 187.016 135.66 187.484 134.562 187.802 C128.164 189.204 135.349 180.31 137.054 179.065 Z M182.43 188.114 C179.465 187.647 179.465 187.647 178.219 187.172 L178.219 184.679 C181.177 184.212 183.364 183.279 185.855 185.147 L191.625 185.147 C192.877 183.434 192.247 182.499 191.312 180.934 C190.378 179.533 190.845 179.844 192.566 179.221 C192.72 175.632 190.689 172.828 195.524 171.736 C199.268 172.982 202.701 173.918 204.881 177.508 C205.348 181.09 206.282 183.122 205.035 186.549 C197.391 187.336 190.066 187.802 182.43 188.114 Z M164.806 187.802 C163.405 187.172 162.16 186.705 160.758 186.082 C157.17 182.336 163.249 176.098 166.059 173.918 C172.762 170.484 177.44 170.95 185.233 170.95 C187.73 169.393 188.198 169.081 190.534 170.95 C190.378 171.425 190.222 171.893 190.222 172.359 C186.79 174.073 171.983 170.016 175.098 177.508 C174.007 179.687 172.762 181.557 175.565 183.122 C175.565 184.368 175.253 185.147 174.007 185.615 C174.007 186.549 174.007 186.861 174.786 187.484 C171.36 187.647 168.083 187.647 164.806 187.802 Z M210.493 186.549 C209.87 186.238 209.091 186.082 208.461 185.77 C207.995 182.499 207.217 179.687 207.217 176.409 C210.805 173.45 214.082 183.589 212.984 185.77 C212.206 186.082 211.272 186.238 210.493 186.549 Z M152.957 185.926 C149.213 182.967 153.892 176.409 156.857 174.541 C158.726 174.229 158.726 174.229 160.283 174.229 C160.758 174.696 160.758 174.696 160.602 176.409 C159.192 177.819 158.57 179.999 157.636 182.024 C157.636 182.811 157.481 183.434 157.481 183.745 C157.325 185.77 157.325 185.77 155.457 185.77 C154.678 185.926 153.737 185.926 152.957 185.926 Z M225.775 185.458 C223.431 185.147 221.095 185.458 218.597 184.835 C216.105 182.656 213.926 180.156 214.082 176.409 C215.951 175.475 217.663 177.975 219.539 178.442 C221.718 178.442 223.898 178.442 225.929 178.294 C227.643 181.876 232.632 186.705 225.775 185.458 Z M188.509 184.524 C186.79 183.901 185.076 183.279 183.209 182.811 C180.398 183.279 173.696 182.336 178.53 178.754 C182.274 179.221 190.222 178.605 190.222 183.901 C189.6 184.056 189.132 184.212 188.509 184.524 Z M188.198 178.294 C187.265 177.819 187.265 177.819 186.634 177.04 C183.831 175.787 179.309 177.975 177.44 175.632 C178.219 173.139 187.73 174.385 189.912 174.852 C190.534 175.942 190.534 176.409 190.534 177.508 C189.443 178.131 189.443 178.131 188.198 178.294 Z M134.251 176.409 C136.12 171.107 135.349 164.558 132.064 157.697 C131.753 156.294 131.597 154.574 132.064 153.172 C133.94 150.057 135.66 148.336 136.431 144.746 C140.175 142.41 140.643 148.492 140.331 150.991 C138.766 154.418 139.086 158.164 139.086 161.917 C140.175 165.648 145.789 175.008 138.922 175.632 C138.3 175.632 137.521 175.787 136.587 175.942 C135.66 176.098 134.719 176.254 134.251 176.409 Z M219.539 175.632 C219.227 169.861 220.628 163.622 221.251 157.853 C221.251 152.861 220.318 147.868 220.318 142.721 C219.85 140.697 219.383 139.131 220.318 138.353 C222.03 136.795 222.653 137.573 222.808 139.287 C222.964 140.074 222.964 141.008 222.964 141.942 C223.119 144.278 223.119 146.466 223.587 148.647 C223.898 150.368 225.775 152.705 226.085 154.574 C224.21 159.253 223.743 164.245 224.373 169.55 C224.521 172.205 224.839 173.45 222.497 174.696 C221.718 175.319 220.94 175.475 219.539 175.632 Z M206.594 169.55 C210.649 164.869 211.584 156.917 211.584 150.991 C212.206 147.868 210.961 144.917 209.403 141.787 C207.06 138.664 206.594 138.819 210.961 136.795 C214.237 134.302 216.573 131.959 219.227 128.85 C221.407 128.85 223.587 129.622 224.373 131.336 C225.462 133.361 224.521 133.673 222.808 134.459 C220.318 135.549 216.573 136.483 214.237 138.196 C212.362 139.451 211.895 139.762 212.674 141.475 C213.451 143.656 214.86 144.278 214.86 146.933 C215.172 152.705 215.483 159.876 213.296 165.024 C212.051 167.836 210.961 170.484 210.182 172.359 C207.995 177.508 203.479 173.139 206.594 169.55 Z M146.877 172.048 C141.888 166.745 143.912 155.983 143.912 149.427 C143.445 147.713 142.978 146 142.51 144.278 C142.666 142.41 143.912 139.451 142.822 137.73 L141.421 137.73 C140.487 138.664 139.552 138.975 138.455 139.605 C135.185 138.353 134.719 135.705 133.31 132.738 C133.31 130.713 137.677 128.681 140.643 127.902 C142.978 127.434 143.133 127.745 144.387 129.468 C146.254 132.114 148.279 133.827 151.401 136.172 C151.867 137.107 151.867 138.196 151.556 139.131 C148.747 143.656 146.877 149.582 146.411 154.885 C146.723 160.663 147.657 164.09 149.999 168.459 C150.778 169.704 152.49 171.107 151.244 172.205 C149.37 173.606 148.436 173.918 146.877 172.048 Z M151.401 147.245 C152.343 144.435 153.114 141.631 154.678 138.975 C156.857 138.975 158.882 140.385 160.914 141.319 C167.46 142.41 173.384 142.876 179.619 140.074 L182.741 140.074 C189.443 141.319 195.368 141.942 201.758 140.385 C204.412 139.605 205.035 138.196 205.814 141.164 C216.105 156.294 202.227 177.664 191.779 162.533 C191.312 160.189 192.877 155.352 190.222 155.041 C189.6 157.541 189.289 158.943 189.132 159.876 C188.665 161.753 186.478 165.648 184.765 161.917 C184.142 156.45 183.52 151.614 181.34 146.466 C179.931 148.336 182.43 154.73 182.274 157.541 C182.118 161.606 176.973 165.811 175.565 160.663 C175.098 158.631 175.875 156.139 173.696 155.352 C172.294 156.294 171.827 158.164 171.516 160.189 C168.083 175.787 145.322 164.712 151.401 147.245 Z M189.443 139.131 C188.353 138.664 187.108 138.353 186.018 138.042 C184.142 137.418 184.765 136.95 185.707 136.016 C187.887 133.991 188.198 133.516 191.157 130.09 C195.056 129.468 198.023 128.213 201.604 126.655 C205.348 122.753 204.881 122.442 210.805 123.385 C210.961 123.696 211.116 124.163 211.272 124.475 C210.961 125.722 209.715 125.876 208.936 126.499 C204.412 129.934 200.046 130.09 195.679 133.361 C195.835 133.673 195.835 133.991 195.835 134.459 C200.513 136.172 206.282 132.427 210.026 130.245 C210.493 129.777 217.974 123.221 216.884 127.278 C214.549 136.328 196.768 138.664 189.443 139.131 Z M163.559 138.196 C157.481 136.795 154.203 134.77 149.37 130.713 C147.812 129.155 146.877 127.59 145.165 126.344 L145.165 124.631 C145.944 124.319 151.401 123.696 153.892 123.065 C155.457 123.065 157.325 124.786 158.104 126.188 C159.661 127.434 161.381 128.681 162.937 130.09 C168.549 132.581 173.54 131.647 179.309 130.401 C182.741 129 185.855 127.278 189.443 126.655 C189.755 129.622 184.765 133.204 182.586 134.926 C178.997 136.172 175.72 137.418 172.139 138.042 C169.336 138.042 166.371 138.196 163.559 138.196 Z M166.371 128.681 C164.339 128.213 164.182 128.539 161.381 126.655 C160.447 126.188 161.07 125.566 161.381 124.942 C163.871 124.008 167.149 124.008 170.419 124.163 C176.817 124.163 181.488 121.664 187.108 119.171 C188.976 118.237 189.443 117.139 190.689 115.737 C191.935 114.336 193.343 114.024 197.08 115.114 C197.391 115.737 197.548 116.361 197.236 116.984 C195.368 119.483 194.745 120.417 193.967 120.885 C193.188 121.353 192.091 121.82 191.312 122.13 C182.898 125.722 175.72 128.369 166.371 128.681 Z M194.589 126.344 C193.188 123.385 197.71 119.328 201.604 119.639 C201.758 120.417 202.538 120.417 203.324 120.73 C202.701 124.008 197.71 127.278 194.589 126.344 Z M163.249 120.574 C166.215 119.951 168.713 119.016 171.516 117.926 C172.294 117.295 173.073 116.672 174.007 115.894 C176.35 113.868 176.973 113.868 180.242 113.712 C182.43 113.712 184.609 113.712 185.855 114.336 C186.322 115.114 186.322 116.049 185.855 116.828 C182.898 118.393 180.087 119.794 177.44 120.885 C174.786 121.82 173.073 122.13 170.263 122.13 C168.395 122.13 166.527 122.287 164.65 122.442 C162.315 122.753 160.602 121.197 163.249 120.574 Z M173.852 109.188 C176.498 106.221 180.398 105.754 184.298 105.131 C187.887 103.418 188.198 102.328 190.534 99.36 C192.091 97.335 194.122 93.9013 196.614 91.877 C197.71 90.9341 201.447 88.7528 200.668 91.877 C200.202 93.7447 198.334 95.9271 197.08 96.7049 C194.122 98.4256 191.001 103.262 189.132 106.844 C188.509 108.097 188.042 109.967 186.478 110.279 C180.242 110.59 179.153 110.59 176.498 110.902 C174.475 111.057 173.696 111.525 173.852 109.188 Z M166.682 110.433 C166.215 104.664 173.852 102.015 179.309 100.451 C184.921 98.8932 184.921 97.6463 188.509 93.1228 C191.935 88.9094 195.524 85.3192 200.046 81.114 C204.881 78.7702 202.538 84.0738 200.513 85.0082 C193.811 87.6641 190.845 97.1795 186.167 100.296 C180.866 103.729 171.827 104.819 168.713 109.656 C168.238 110.279 167.304 110.433 166.682 110.433 Z M164.806 104.976 C164.182 104.664 164.028 104.041 157.17 97.8026 C155.145 95.4595 153.269 92.4994 151.556 89.8435 C151.712 88.2871 152.343 88.4426 153.58 88.4426 C157.948 91.877 159.815 99.8283 165.748 101.696 C166.215 102.794 166.527 103.262 166.527 104.508 C166.059 104.819 166.059 104.819 164.806 104.976 Z M169.025 101.385 C165.748 99.0487 162.783 95.9271 160.447 92.6545 C160.283 91.7208 160.283 90.7786 160.283 90.0001 C158.104 87.975 155.457 86.1059 152.343 86.2614 C150.467 89.2204 148.123 88.7528 148.902 85.0082 C149.525 84.8516 150.154 84.5406 150.778 84.2293 C150.933 81.5816 151.556 79.401 154.678 80.4839 C155.611 82.0491 156.703 83.4507 157.793 85.0082 C159.661 85.9504 163.093 87.1965 161.848 89.8435 C162.315 90.311 162.783 90.9341 163.249 91.4087 C167.304 93.2775 167.772 96.0896 171.048 98.8932 C171.048 100.919 171.36 101.074 169.025 101.385 Z M172.606 97.1795 C170.731 96.2381 169.796 93.9013 168.862 90.6231 C168.083 89.2204 167.46 87.6641 166.059 87.352 C163.559 86.8844 163.249 81.114 165.272 79.0893 C167.616 81.4261 169.336 81.737 172.606 81.4261 C173.073 82.5156 173.384 83.7621 174.007 84.6961 C175.098 86.8844 178.063 88.2871 180.087 86.1059 C181.644 84.3851 182.118 82.6714 181.34 80.328 C182.118 80.4839 182.118 80.4839 183.675 81.4261 C186.478 81.4261 187.73 80.4839 189.443 78.4589 C190.378 78.303 190.689 78.6147 191.157 79.401 C191.157 72.5326 186.478 68.3196 180.866 65.516 C180.242 65.2043 179.619 64.7371 178.997 64.4254 C177.907 63.6391 177.751 63.7949 178.374 61.9257 C180.866 61.7703 184.609 64.1066 186.945 65.8274 C190.222 68.3196 192.401 69.8845 192.877 73.6228 C193.032 75.1803 193.343 76.278 193.656 77.6799 C193.811 78.7702 194.279 82.2046 192.091 80.328 C191.935 80.1718 191.625 80.0163 191.312 79.5487 C191.312 85.475 190.222 87.352 186.945 90.1556 C184.298 92.4994 184.142 94.6799 183.053 96.0896 C181.021 98.5819 175.098 98.4256 172.606 97.1795 Z M172.294 93.4338 C172.762 91.877 174.786 89.688 175.72 88.7528 C176.817 87.6641 178.842 87.5075 179.465 88.4426 C180.398 90.0001 181.644 91.254 182.586 92.9662 C183.675 95.1474 181.34 94.5244 180.554 93.59 C178.53 93.1228 176.661 92.3439 173.54 94.3682 C172.606 94.8365 171.983 94.6799 172.294 93.4338 Z M175.098 92.0322 C175.098 91.5583 176.35 90.6231 176.187 90.311 C178.219 90.1556 177.907 90.0001 178.686 90.311 C178.686 90.6231 179.619 91.7208 179.619 92.0322 C178.686 92.1884 176.031 92.0322 175.098 92.0322 Z M191.935 87.6641 C191.625 87.5075 191.468 87.5075 191.312 87.352 C191.157 85.475 191.625 83.2945 193.032 82.0491 C193.499 82.0491 193.811 82.2046 194.279 82.2046 C194.433 85.1637 194.433 85.7867 191.935 87.6641 Z M176.031 84.0738 C174.786 81.114 178.219 77.5241 175.72 74.09 C173.229 72.8439 171.048 73.467 168.713 74.7131 C168.549 76.4338 168.238 76.278 169.64 76.7452 C171.204 75.4994 172.762 75.8108 173.696 75.9666 C174.007 76.278 174.007 76.278 174.007 78.303 C173.696 78.4589 173.229 78.6147 172.917 78.7702 C172.762 79.0893 172.762 79.2374 172.762 79.401 C169.485 79.5487 165.748 79.0893 165.584 75.1803 C167.304 71.9095 168.549 70.8189 171.983 69.254 C173.54 68.6309 175.253 67.6965 176.187 66.6063 C177.284 65.0485 177.596 65.9832 179.153 66.9176 C182.43 68.6309 184.298 70.0329 186.478 72.5326 C187.73 73.7787 187.73 73.7787 185.855 73.7787 C182.898 73.6228 180.242 73.1556 178.686 76.7452 C178.686 79.401 179.309 81.5816 178.997 84.0738 C178.063 85.1637 176.817 85.6312 176.031 84.0738 Z M159.971 83.9176 C157.793 81.5816 157.17 81.5816 158.259 77.8358 C159.815 74.7131 160.447 72.0654 163.249 69.4099 C166.993 66.1387 170.731 62.5488 175.72 62.0816 C176.973 63.0238 176.817 63.9508 175.253 64.5738 C169.64 67.6965 166.371 69.4099 163.405 75.1803 C162.783 77.3686 162.16 83.139 161.848 83.7621 C161.224 83.9176 160.602 83.9176 159.971 83.9176 Z M196.146 80.0163 C195.835 77.8358 195.056 75.9666 195.056 73.7787 C195.835 73.3111 196.301 73.467 197.236 73.467 C198.023 75.9666 199.735 79.5487 196.146 80.0163 Z M181.807 77.6799 C181.807 74.4017 186.018 75.0244 188.042 76.278 C188.198 77.5241 188.509 77.8358 187.419 78.303 C186.945 78.4589 186.634 78.6147 186.167 78.7702 C184.142 79.401 183.364 78.9261 181.807 77.6799 Z M179.931 0 C229.511 0 274.42 20.2786 307.006 52.8771 C339.747 85.475 359.863 130.401 359.863 179.999 C359.863 229.598 339.747 274.525 307.006 307.123 C274.42 339.721 229.511 360 179.931 360 C130.351 360 85.4502 339.721 52.8643 307.123 C20.2709 274.525 0 229.598 0 179.999 C0 130.401 20.2709 85.475 52.8643 52.8771 C85.4502 20.2786 130.351 0 179.931 0 Z M179.931 3.43414 C131.286 3.43414 87.1633 23.2454 55.1997 55.2209 C23.2366 87.1965 3.44026 131.336 3.44026 179.999 C3.44026 228.67 23.2366 272.803 55.1997 304.786 C87.1633 336.754 131.286 356.565 179.931 356.565 C228.577 356.565 272.707 336.754 304.67 304.786 C336.632 272.803 356.43 228.67 356.43 179.999 C356.43 131.336 336.632 87.1965 304.67 55.2209 C272.707 23.2454 228.577 3.43414 179.931 3.43414 Z M129.884 301.82 L133.154 303.377 L127.386 314.294 L123.805 312.426 C124.739 309.771 124.739 307.435 123.805 305.253 C123.019 303.066 121.307 301.352 118.978 300.106 C117.413 299.165 116.004 298.852 114.759 299.008 C113.514 299.165 112.735 299.638 112.113 300.729 C111.17 302.443 112.58 304.934 116.472 308.368 C116.783 308.525 116.94 308.679 117.094 308.836 C120.684 312.114 122.863 314.606 123.649 316.638 C124.427 318.663 124.272 320.689 123.019 322.877 C121.618 325.524 119.594 327.09 116.783 327.713 C113.981 328.336 111.014 327.713 107.902 325.991 C106.336 325.213 105.091 324.279 104.001 323.188 C102.911 322.098 101.985 320.689 101.191 319.132 L99.3221 320.533 L96.3633 318.975 L101.657 308.836 L105.091 310.712 C104.157 313.205 104.001 315.385 104.78 317.417 C105.558 319.443 107.122 321.007 109.457 322.254 C110.86 323.032 112.261 323.344 113.357 323.188 C114.448 323.032 115.381 322.565 115.849 321.631 C116.783 319.91 115.381 317.417 111.794 314.294 C111.17 313.671 110.548 313.205 110.08 312.737 C106.967 309.934 104.936 307.435 104.157 305.409 C103.378 303.377 103.689 301.352 104.78 299.165 C106.181 296.36 108.368 294.81 111.326 294.187 C114.136 293.549 117.251 294.335 120.684 296.048 C122.395 296.983 123.805 298.074 124.895 299.165 C126.14 300.417 127.074 301.82 127.853 303.377 L129.884 301.82 Z M80.4601 303.534 L81.2386 304.311 L78.5846 306.967 L66.5808 295.425 L69.2277 292.614 L70.6363 294.016 C71.259 294.81 71.8821 295.114 72.1933 295.269 C72.6606 295.425 72.8163 295.425 73.1275 295.114 C73.2833 294.959 73.439 294.81 73.5948 294.498 C73.906 294.187 74.0617 293.86 74.2175 293.549 L81.5505 278.121 L65.9581 285.909 C65.8023 285.909 65.4908 286.065 65.335 286.221 C65.0239 286.377 64.8681 286.688 64.7123 286.844 C64.4008 287.155 64.238 287.311 64.4008 287.623 C64.4008 287.934 64.8681 288.401 65.4908 289.187 L67.0477 290.746 L64.5566 293.393 L54.4213 283.565 L57.0682 280.917 L58.0024 281.852 C58.6251 282.475 59.2553 282.786 59.8783 282.786 C60.501 282.786 61.4353 282.632 62.681 282.009 L85.2867 270.778 L90.5958 275.926 L79.8303 298.697 C79.363 299.794 79.2073 300.729 79.2073 301.352 C79.363 302.131 79.6746 302.909 80.4601 303.534 Z M28.3821 239.115 L38.9846 233.811 L40.6974 237.089 C37.8946 238.803 36.182 240.361 35.7075 241.77 C35.2404 243.016 35.7075 245.197 37.2645 248.164 L39.9189 253.623 L47.8671 249.409 L47.2441 248.008 C46.4656 246.449 45.6871 245.671 44.9086 245.509 C44.1302 245.359 42.7216 245.671 40.8531 246.606 L39.1404 243.327 L52.0784 236.622 L53.7986 240.049 L52.5454 240.672 C51.1442 241.302 50.21 242.081 50.0542 243.016 C49.7426 243.795 49.8984 244.886 50.5215 246.287 L51.3 247.696 L60.501 243.016 L58.0024 238.18 C56.4455 235.057 54.8882 233.344 53.3316 232.877 C51.7669 232.566 49.2757 233.033 45.9987 234.434 L44.2859 231.007 L55.667 225.237 L69.3835 252.221 L66.1139 253.935 L65.335 252.376 C64.7123 251.13 64.238 250.5 63.7707 250.344 C63.3037 250.188 62.5253 250.5 61.4353 250.967 L45.8429 258.925 C44.7529 259.549 44.1302 260.015 43.9744 260.483 C43.8186 260.795 44.1302 261.738 44.5975 262.827 L45.3756 264.384 L42.0985 266.098 L28.3821 239.115 Z M17.1568 181.246 L20.8936 180.934 L21.0493 182.336 C21.2051 183.434 21.5239 184.212 21.8352 184.524 C22.1466 184.679 23.0809 184.835 24.1708 184.679 L38.3616 182.967 C41.9428 182.499 44.7529 183.279 46.7771 185.147 C48.8084 187.016 50.0542 190.139 50.6769 194.196 C51.1442 197.942 50.5215 201.057 48.9646 203.238 C47.3998 205.581 45.0644 206.827 41.6316 207.296 L27.2922 209.016 C26.0392 209.171 25.2606 209.482 24.9492 209.795 C24.6379 210.106 24.6379 211.041 24.7936 212.294 L24.9492 213.844 L21.2051 214.318 L19.1809 197.467 L22.9252 197 L23.2366 199.033 C23.3922 200.433 23.548 201.212 24.015 201.524 C24.3264 201.681 25.1051 201.835 26.3506 201.681 L40.2304 199.968 C42.5658 199.656 44.1302 199.033 45.0644 198.09 C45.8429 197 46.1544 195.605 45.9987 193.573 C45.6871 191.23 45.0644 189.672 43.9744 188.737 C43.0402 187.958 41.3201 187.647 39.1404 187.958 L24.7936 189.672 C23.548 189.827 22.9252 190.139 22.6138 190.45 C22.3023 190.762 22.3023 191.541 22.4581 192.631 L22.6138 194.664 L18.8694 195.131 L17.1568 181.246 Z M44.1302 133.204 C48.0225 134.302 50.8327 136.016 52.3896 138.664 C54.1097 141.319 54.4213 144.59 53.487 148.336 C52.2342 153.328 49.8984 156.762 46.1544 159.098 C42.5658 161.286 38.5177 161.753 33.6834 160.5 C29.1606 159.409 25.7278 157.073 23.548 153.484 C21.2051 149.738 20.738 145.844 21.8352 141.475 C22.1466 139.917 22.7694 138.508 23.548 137.262 C24.3264 136.016 25.4163 134.77 26.8251 133.516 L24.6379 132.27 L25.5721 128.539 L37.5835 131.647 L36.6416 135.549 C33.8391 135.082 31.4961 135.236 29.6277 136.328 C27.7593 137.262 26.662 138.819 26.0392 141.164 C25.4163 143.656 25.8835 146 27.6036 147.868 C29.3163 149.902 32.1189 151.302 35.7075 152.237 C39.6073 153.172 42.5658 153.172 45.0644 152.237 C47.5556 151.302 48.9646 149.582 49.7426 146.933 C50.21 144.746 49.8984 142.721 48.8084 141.008 C47.5556 139.287 45.6871 138.042 43.1959 137.107 L44.1302 133.204 Z M43.1959 93.2775 L46.4656 95.1474 L45.5317 96.8682 C44.9086 97.9588 44.5975 98.737 44.7529 99.2053 C44.9086 99.5163 45.5317 100.139 46.6214 100.762 L61.7468 109.499 C62.8364 110.122 63.6149 110.433 63.9264 110.279 C64.4008 110.122 65.0239 109.499 65.6466 108.409 L66.5808 106.844 L69.8579 108.721 L61.2795 123.385 L58.0024 121.508 L58.9367 119.951 C59.5668 118.86 59.8783 118.08 59.7226 117.607 C59.5668 117.139 59.0999 116.672 58.0024 116.049 L42.8848 107.311 C41.7874 106.688 41.0085 106.377 40.5416 106.533 C40.0747 106.688 39.6073 107.311 38.9846 108.409 L38.0504 109.81 L34.7733 107.943 L43.1959 93.2775 Z M66.8923 64.4254 L69.5467 67.0735 L68.1377 68.4751 C67.2035 69.4099 66.7366 70.1958 66.7366 70.6634 C66.7366 70.9747 67.2035 71.7537 68.1377 72.5326 L82.6397 86.7289 L86.0729 83.139 C88.2533 80.9585 89.1864 79.0893 89.1864 77.5241 C89.031 75.9666 87.6306 73.7787 85.1313 71.1306 L87.786 68.3196 L96.9863 77.2127 L77.0276 97.9588 L74.2175 95.4595 L75.4707 94.213 C76.4049 93.2775 76.8719 92.4994 76.8719 92.0322 C76.8719 91.5583 76.4049 90.9341 75.4707 90.1556 L62.8364 77.9913 C62.058 77.0569 61.2795 76.7452 60.8126 76.7452 C60.3453 76.7452 59.7226 77.2127 58.7883 78.1471 L57.6909 79.401 L54.8882 76.7452 L66.8923 64.4254 Z M108.524 34.9422 L110.237 38.2206 L108.679 38.9995 C107.59 39.6226 106.967 40.2457 106.81 40.557 C106.647 41.0242 106.967 41.8031 107.59 42.8934 L116.004 58.1804 C116.628 59.278 117.094 59.9011 117.569 60.0569 C118.035 60.2124 118.815 59.9011 119.905 59.278 L121.462 58.3358 L123.338 61.6144 L108.524 69.8845 L106.647 66.6063 L108.213 65.8274 C109.301 65.0485 109.925 64.5738 110.08 64.1066 C110.237 63.6391 109.925 63.0238 109.457 61.9257 L100.881 46.6391 C100.257 45.5489 99.7902 44.9258 99.3221 44.77 C98.8556 44.6145 98.0763 44.9258 96.9863 45.5489 L95.4231 46.3352 L93.7093 43.0492 L108.524 34.9422 Z M139.234 54.7534 L135.66 55.5323 L132.843 43.5238 L136.744 42.7379 C137.833 45.2372 139.398 46.9505 141.421 48.0411 C143.601 49.1388 145.944 49.4501 148.436 48.8271 C150.311 48.3599 151.556 47.7294 152.343 46.9505 C153.269 46.0235 153.58 44.9258 153.269 43.8356 C152.803 41.959 150.154 40.8687 145.01 40.8687 L144.231 40.8687 C139.398 40.8687 135.971 40.4011 134.095 39.3109 C132.22 38.3765 130.974 36.6556 130.507 34.3192 C129.884 31.3524 130.351 28.8601 132.064 26.5164 C133.784 24.3357 136.431 22.778 139.864 21.9994 C141.577 21.5246 143.133 21.3688 144.698 21.5246 C146.254 21.6877 147.812 22.1551 149.37 22.778 L149.999 20.4343 L153.269 19.6555 L155.768 30.7293 L152.031 31.6638 C151.09 29.1717 149.845 27.4584 147.812 26.5164 C145.944 25.426 143.756 25.2703 141.111 25.8934 C139.552 26.2047 138.3 26.8279 137.677 27.6141 C136.898 28.5487 136.587 29.4832 136.744 30.5735 C137.21 32.4501 139.864 33.3847 144.542 33.3847 L146.877 33.3847 C151.244 33.5404 154.359 34.0076 156.235 35.0981 C158.104 36.0325 159.349 37.7534 159.815 40.0898 C160.602 43.2125 159.971 45.8602 158.259 48.197 C156.391 50.5408 153.58 52.0982 149.845 53.0326 C147.968 53.3443 146.254 53.5002 144.542 53.3443 C142.978 53.1885 141.265 52.8771 139.709 52.0982 L139.234 54.7534 Z M145.789 9.6719 L142.666 18.721 L138.611 19.6555 L131.753 12.7946 L133.94 12.3348 L139.709 14.9752 L143.601 10.1392 L145.789 9.6719 Z M187.73 21.9994 L187.265 21.9994 C184.921 21.8361 183.209 22.3108 182.118 23.557 C181.021 24.803 180.242 26.9837 180.087 29.9505 L176.187 29.6464 L176.973 17.4748 L206.282 19.6555 L205.503 31.8196 L201.604 31.5081 C201.758 28.3929 201.447 26.2047 200.513 24.803 C199.58 23.4011 198.023 22.778 195.679 22.6224 L195.213 22.4667 L193.656 42.8934 C193.656 44.1469 193.811 44.9258 193.967 45.2372 C194.279 45.5489 195.056 45.7118 196.458 45.8602 L198.49 46.0235 L198.178 49.7618 L180.866 48.5083 L181.177 44.77 L183.209 44.9258 C184.454 45.0817 185.233 44.9258 185.707 44.6145 C186.018 44.3028 186.167 43.5238 186.322 42.2703 L187.73 21.9994 Z M256.804 36.8115 L251.968 47.7294 L248.537 46.1719 C249.626 43.0492 249.937 40.8687 249.471 39.4667 C249.003 38.0648 247.29 36.6556 244.324 35.4095 L238.713 32.9173 L235.123 41.1801 L236.688 41.8031 C238.244 42.4262 239.335 42.582 239.957 42.2703 C240.744 41.959 241.521 40.8687 242.457 38.8437 L245.888 40.4011 L239.957 53.6557 L236.532 52.2541 L237.156 50.8521 C237.778 49.4501 237.933 48.3599 237.621 47.418 C237.31 46.6391 236.532 45.8602 235.123 45.393 L233.566 44.6145 L229.356 54.1307 L234.345 56.3112 C237.467 57.7132 239.803 58.0245 241.367 57.4014 C242.768 56.7784 244.324 54.7534 246.045 51.631 L249.626 53.1885 L244.324 64.8926 L216.729 52.5654 L218.286 49.1388 L219.85 49.7618 C221.095 50.3849 221.874 50.5408 222.341 50.3849 C222.653 50.229 223.119 49.606 223.743 48.3599 L230.764 32.4501 C231.231 31.3524 231.542 30.5735 231.231 30.1062 C231.075 29.6464 230.453 29.1717 229.2 28.7044 L227.643 27.9256 L229.2 24.4914 L256.804 36.8115 Z M304.826 75.3436 L302.328 78.1471 L301.245 77.2127 C300.458 76.278 299.68 75.9666 299.369 75.9666 C298.895 75.9666 298.272 76.4338 297.338 77.3686 L287.668 87.8196 C285.185 90.4669 282.679 91.5583 279.876 91.5583 C277.066 91.4087 274.108 89.8435 270.986 87.041 C268.191 84.3851 266.775 81.737 266.465 79.0893 C266.153 76.278 267.241 73.6228 269.43 71.2865 L279.409 60.68 C280.188 59.7452 280.656 58.9589 280.656 58.4917 C280.656 58.0245 280.188 57.4014 279.253 56.467 L278.009 55.5323 L280.656 52.7213 L292.971 64.2625 L290.479 67.0735 L288.923 65.6715 C287.98 64.7371 287.202 64.2625 286.735 64.2625 C286.423 64.2625 285.645 64.7371 284.874 65.6715 L275.353 75.9666 C273.642 77.6799 272.863 79.2374 272.863 80.4839 C272.863 81.737 273.485 83.139 275.042 84.3851 C276.755 86.1059 278.32 86.8844 279.565 86.8844 C280.81 86.8844 282.368 86.1059 283.932 84.3851 L293.601 73.9342 C294.535 72.9998 295.002 72.3767 295.002 71.9095 C295.002 71.4419 294.535 70.8189 293.601 70.0329 L292.191 68.6309 L294.847 65.9832 L304.826 75.3436 Z M294.691 116.361 L293.282 113.088 L304.351 107.786 L306.072 111.368 C303.729 112.934 302.328 114.959 301.705 117.139 C301.082 119.483 301.393 121.82 302.482 124.163 C303.262 125.876 304.203 126.967 305.136 127.59 C306.227 128.213 307.318 128.369 308.407 127.902 C310.127 126.967 310.594 124.163 309.497 119.171 C309.341 118.86 309.341 118.548 309.341 118.393 C308.407 113.557 308.095 110.279 308.718 108.254 C309.341 106.065 310.75 104.508 312.929 103.574 C315.583 102.328 318.238 102.328 320.885 103.418 C323.377 104.664 325.4 106.844 326.965 110.122 C327.744 111.68 328.055 113.245 328.366 114.802 C328.521 116.361 328.521 117.926 328.055 119.639 L330.546 119.639 L331.955 122.753 L321.663 127.59 L319.944 124.163 C322.286 122.753 323.688 121.041 324.155 118.86 C324.778 116.828 324.467 114.647 323.377 112.147 C322.754 110.745 321.82 109.656 320.885 109.188 C319.944 108.566 318.854 108.566 317.927 109.033 C316.206 109.81 315.739 112.466 316.674 117.139 C316.985 118.08 317.141 118.86 317.141 119.483 C318.075 123.696 318.075 126.811 317.608 128.85 C316.985 130.868 315.583 132.427 313.241 133.516 C310.439 134.77 307.785 134.926 305.136 133.516 C302.482 132.27 300.303 129.934 298.738 126.344 C297.961 124.631 297.338 122.91 297.182 121.353 C297.026 119.639 297.026 117.926 297.492 116.205 L294.691 116.361 Z M332.421 151.147 C333.667 150.991 334.446 150.679 334.61 150.368 C334.921 150.057 334.921 149.115 334.758 147.868 L334.61 146.156 L338.191 145.688 L340.681 163.311 C341.304 167.368 340.993 170.484 339.904 172.516 C338.814 174.541 336.789 175.787 333.824 176.254 C331.013 176.728 328.677 175.942 327.121 174.229 C325.556 172.516 324.467 169.704 323.845 165.648 L323.065 160.033 L316.206 160.975 C314.954 161.131 314.175 161.442 313.864 161.753 C313.552 162.228 313.552 162.999 313.708 164.245 L314.02 166.278 L310.283 166.901 L307.94 149.902 L311.684 149.427 L311.839 151.147 C311.995 152.393 312.307 153.172 312.774 153.484 C313.085 153.639 313.864 153.795 315.118 153.639 L332.421 151.147 Z M326.81 159.565 L327.121 162.065 C327.588 164.712 328.212 166.434 328.988 167.368 C329.923 168.303 331.177 168.77 333.045 168.459 C334.61 168.303 335.848 167.524 336.314 166.434 C336.944 165.335 336.944 163.467 336.632 160.975 L336.16 158.164 L326.81 159.565 Z M337.723 216.344 L334.135 215.565 L334.61 213.532 C334.921 212.294 334.921 211.352 334.61 211.041 C334.446 210.573 333.667 210.262 332.421 210.106 L312.618 205.426 L311.529 210.262 C310.906 213.221 310.906 215.41 311.839 216.655 C312.774 217.901 315.118 218.992 318.551 220.09 L317.764 223.828 L305.293 220.868 L311.684 192.794 L315.421 193.573 L314.954 195.294 C314.643 196.532 314.643 197.467 314.954 197.778 C315.118 198.253 315.895 198.565 317.141 198.876 L334.135 202.77 C335.38 203.081 336.16 203.081 336.471 202.77 C336.944 202.615 337.255 201.835 337.568 200.59 L337.879 198.876 L341.615 199.656 L337.723 216.344 Z M319.477 262.515 L316.051 260.795 L316.985 259.081 C317.453 257.991 317.764 257.213 317.608 256.737 C317.453 256.271 316.829 255.803 315.739 255.18 L300.147 247.385 C299.051 246.762 298.272 246.449 297.804 246.606 C297.338 246.762 296.87 247.385 296.248 248.631 L295.468 250.188 L292.191 248.475 L299.836 233.5 L303.105 235.213 L302.328 236.779 C301.705 237.868 301.556 238.647 301.705 239.115 C301.868 239.581 302.482 240.049 303.573 240.517 L319.165 248.475 C320.262 249.098 321.041 249.255 321.508 249.098 C321.82 249.098 322.442 248.319 322.909 247.229 L323.845 245.671 L327.121 247.385 L319.477 262.515 Z M297.804 285.598 L298.115 285.286 C299.68 283.565 300.303 281.852 299.992 280.295 C299.836 278.581 298.583 276.705 296.402 274.68 L299.051 271.712 L307.94 280.139 L287.824 301.663 L278.943 293.237 L281.59 290.434 C283.932 292.459 285.8 293.549 287.513 293.705 C289.077 293.86 290.79 293.082 292.348 291.369 L292.659 291.057 L277.689 277.171 C276.911 276.394 276.132 275.926 275.665 275.926 C275.198 275.926 274.576 276.394 273.642 277.328 L272.232 278.892 L269.586 276.394 L281.433 263.606 L284.244 266.098 L282.835 267.663 C281.901 268.598 281.433 269.377 281.433 269.689 C281.433 270.156 281.901 270.934 282.835 271.712 L297.804 285.598 Z M240.269 331.295 L238.556 328.024 L239.803 327.246 C240.899 326.777 241.367 326.154 241.521 325.836 C241.677 325.368 241.367 324.59 240.899 323.5 L234.189 310.876 C232.477 307.746 232.165 304.934 233.255 302.286 C234.189 299.638 236.688 297.451 240.269 295.425 C243.702 293.705 246.667 293.082 249.314 293.705 C251.968 294.335 254.149 296.204 255.706 299.165 L262.571 311.958 C263.194 313.048 263.661 313.671 264.129 313.828 C264.44 313.983 265.219 313.671 266.465 313.048 L267.717 312.426 L269.586 315.703 L254.615 323.655 L252.904 320.377 L254.615 319.286 C255.862 318.663 256.492 318.196 256.647 317.729 C256.804 317.262 256.492 316.638 255.862 315.541 L249.314 303.066 C248.224 301.04 247.135 299.794 245.888 299.32 C244.636 298.852 243.234 299.165 241.521 300.106 C239.335 301.197 238.089 302.286 237.621 303.534 C237.156 304.786 237.467 306.5 238.556 308.368 L245.259 321.163 C245.888 322.254 246.356 322.877 246.824 323.032 C247.29 323.188 247.913 322.877 249.003 322.409 L250.716 321.475 L252.436 324.745 L240.269 331.295 Z M12.4783 131.959 L19.3366 138.819 L18.2467 142.876 L9.04545 145.844 L9.66822 143.656 L14.5024 139.762 L12.0113 133.991 L12.4783 131.959 Z M118.793 202.956 C118.793 203.617 118.511 203.95 117.947 203.95 L114.804 203.95 C114.003 203.95 113.61 203.557 113.61 202.778 L113.61 196.658 C113.61 196.437 113.521 196.251 113.343 196.102 C113.188 195.954 112.98 195.873 112.727 195.873 C112.49 195.873 112.297 195.94 112.135 196.081 C111.971 196.198 111.89 196.376 111.89 196.615 L111.89 206.078 L110.139 206.064 L110.139 196.615 C110.139 196.081 110.185 195.754 110.274 195.635 C110.363 195.516 110.51 195.427 110.734 195.354 L111.06 195.28 L111.452 195.257 L117.762 195.257 C118.444 195.257 118.778 195.539 118.778 196.095 L118.793 196.577 L118.793 202.956 Z M117.043 202.8 L117.043 196.555 C117.043 196.361 116.954 196.207 116.79 196.066 C116.599 195.947 116.397 195.887 116.182 195.887 C115.983 195.887 115.79 195.947 115.604 196.066 C115.411 196.191 115.323 196.361 115.323 196.6 L115.323 202.8 C115.374 203.268 115.664 203.498 116.205 203.498 C116.434 203.498 116.628 203.437 116.798 203.327 C116.961 203.179 117.043 203.008 117.043 202.8 Z M124.071 198.313 L124.071 195.887 L121.129 195.887 C121.157 196.102 121.194 196.258 121.224 196.347 C121.246 196.443 121.277 196.6 121.321 196.814 C121.358 197.036 121.455 197.244 121.595 197.46 C121.707 197.623 121.833 197.749 121.958 197.832 C122.225 198.001 122.507 198.12 122.804 198.194 C123.093 198.276 123.516 198.313 124.071 198.313 Z M124.071 203.245 L124.071 200.167 C123.516 200.167 123.072 200.211 122.73 200.3 C122.477 200.36 122.225 200.478 121.958 200.649 C121.854 200.723 121.736 200.887 121.595 201.153 C121.455 201.428 121.358 201.681 121.321 201.895 C121.277 202.118 121.239 202.385 121.194 202.689 C121.157 203.001 121.143 203.186 121.129 203.245 L124.071 203.245 Z M125.852 203.95 L119.482 203.95 C119.497 203.75 119.533 203.483 119.594 203.163 C119.622 202.948 119.675 202.673 119.734 202.355 C119.771 202.199 119.816 202.021 119.889 201.814 C119.964 201.606 120.039 201.398 120.104 201.206 C120.149 201.057 120.254 200.895 120.424 200.709 C120.586 200.53 120.743 200.389 120.883 200.285 C121.106 200.122 121.283 200.011 121.417 199.944 C121.7 199.811 121.995 199.722 122.322 199.686 C122.634 199.64 122.967 199.603 123.301 199.559 C123.642 199.529 123.893 199.514 124.071 199.514 L124.071 198.965 C123.679 198.965 123.093 198.913 122.322 198.81 C121.943 198.765 121.611 198.668 121.321 198.535 C121.15 198.454 120.972 198.342 120.794 198.209 C120.617 198.075 120.453 197.935 120.319 197.794 C120.149 197.6 120.045 197.445 120.015 197.319 C119.971 197.2 119.926 197.074 119.883 196.947 C119.83 196.837 119.786 196.689 119.734 196.532 C119.615 196.118 119.526 195.664 119.482 195.182 L125.852 195.182 L125.852 203.95 Z M137.032 196.636 L137.032 202.8 C137.032 203.037 136.943 203.216 136.758 203.348 C136.557 203.467 136.372 203.528 136.217 203.528 C136.039 203.528 135.831 203.46 135.602 203.327 C135.513 203.238 135.452 203.163 135.423 203.104 C135.379 203.037 135.356 202.948 135.356 202.845 L135.349 196.681 C135.349 196.458 135.43 196.287 135.602 196.161 C135.764 196.043 135.948 195.984 136.164 195.984 C136.461 195.984 136.683 196.036 136.832 196.139 C136.966 196.251 137.032 196.422 137.032 196.636 Z M137.848 195.242 L134.371 195.257 C133.828 195.257 133.554 195.51 133.554 196.02 L133.554 202.845 C133.554 203.06 133.481 203.238 133.324 203.394 C133.251 203.453 133.162 203.483 133.065 203.505 C132.969 203.52 132.857 203.528 132.747 203.528 C132.575 203.528 132.457 203.52 132.391 203.498 C132.316 203.49 132.22 203.453 132.124 203.378 C131.93 203.193 131.842 203.001 131.842 202.8 L131.842 196.058 C131.842 195.798 131.79 195.605 131.686 195.465 C131.575 195.331 131.397 195.271 131.152 195.271 L127.645 195.271 C127.364 195.271 127.127 195.36 126.933 195.547 C126.733 195.731 126.636 195.961 126.636 196.235 L126.636 203.066 C126.636 203.327 126.733 203.528 126.926 203.697 C127.111 203.868 127.356 203.95 127.675 203.95 L137.922 203.95 C138.195 203.95 138.419 203.868 138.588 203.697 C138.751 203.512 138.827 203.282 138.827 203.008 L138.827 196.177 C138.827 196.02 138.803 195.895 138.766 195.798 C138.73 195.709 138.663 195.628 138.574 195.547 C138.382 195.376 138.137 195.28 137.848 195.242 Z M128.43 202.711 L128.43 196.717 C128.43 196.496 128.513 196.317 128.675 196.198 C128.772 196.125 128.861 196.073 128.951 196.029 C129.032 195.999 129.136 195.984 129.255 195.984 C129.521 195.984 129.737 196.05 129.907 196.177 C130.04 196.281 130.114 196.45 130.114 196.681 L130.114 202.8 C130.114 203.008 130.025 203.186 129.854 203.327 C129.676 203.467 129.484 203.542 129.255 203.542 C129.04 203.542 128.847 203.453 128.691 203.282 C128.52 203.126 128.43 202.934 128.43 202.711 Z M149.725 197.2 C149.725 196.903 149.658 196.681 149.517 196.539 C149.384 196.399 149.155 196.265 148.843 196.118 C148.792 196.081 148.636 196.066 148.391 196.066 L148.153 196.066 L148.034 196.066 L147.901 196.095 L147.553 196.118 L147.553 199.358 C147.872 199.358 148.169 199.314 148.443 199.24 C148.717 199.159 148.961 199.047 149.155 198.92 C149.532 198.706 149.719 198.409 149.719 198.052 L149.725 197.2 Z M144.579 195.257 L144.579 199.707 L145.862 199.574 L145.862 196.6 C145.862 195.91 146.166 195.457 146.788 195.242 L147.745 195.242 L149.644 195.257 C150.177 195.257 150.622 195.427 150.971 195.761 C151.178 195.954 151.32 196.207 151.393 196.532 L151.416 197.429 L151.416 197.904 L151.43 198.335 C151.43 198.854 151.038 199.284 150.259 199.626 C149.777 199.803 148.881 199.997 147.568 200.189 L147.575 203.95 L145.862 203.95 L145.862 200.374 L144.579 200.478 L144.579 203.95 L142.838 203.95 L142.838 200.634 L141.295 200.805 L141.295 203.95 L139.552 203.95 L139.552 201.072 C139.515 201.086 139.494 201.102 139.471 201.11 C139.308 201.175 139.197 201.22 139.131 201.22 C139.086 201.22 139.063 201.206 139.042 201.191 C139.005 201.153 138.981 201.086 138.975 200.984 C138.967 200.895 138.959 200.835 138.959 200.798 C138.967 200.665 138.975 200.59 138.975 200.567 C138.975 200.501 139.07 200.442 139.263 200.382 C139.33 200.368 139.426 200.345 139.552 200.323 L139.552 195.242 L141.295 195.242 L141.295 200.033 L142.838 199.863 L142.838 195.242 L144.579 195.257 Z M153.766 197.393 L152.098 197.408 C152.098 196.689 152.416 196.155 153.054 195.79 C153.58 195.502 154.218 195.354 154.982 195.354 C155.857 195.354 156.517 195.486 156.976 195.754 C157.578 196.125 157.889 196.762 157.889 197.675 L157.903 202.399 C157.903 202.815 157.591 203.208 156.992 203.587 C156.614 203.831 156.197 203.95 155.746 203.95 L153.788 203.95 C153.566 203.95 153.321 203.875 153.061 203.72 L152.98 203.668 L152.883 203.601 L152.728 203.474 L152.483 203.186 C152.247 202.823 152.12 202.296 152.12 201.606 L153.714 201.606 C153.714 201.895 153.744 202.147 153.788 202.355 C153.833 202.57 153.907 202.749 154.011 202.875 C154.114 203.008 154.226 203.112 154.336 203.179 C154.507 203.275 154.685 203.327 154.9 203.327 C155.123 203.327 155.293 203.297 155.434 203.245 C155.56 203.201 155.724 203.119 155.916 203.008 C156.035 202.94 156.117 202.851 156.169 202.741 C156.227 202.63 156.28 202.474 156.316 202.281 L156.316 199.96 L153.766 199.96 L153.766 198.965 L156.332 198.965 L156.332 197.832 L156.28 197.036 C156.28 196.874 156.183 196.725 156.004 196.6 C155.813 196.473 155.604 196.407 155.382 196.407 C155.27 196.407 155.123 196.407 154.938 196.422 C154.752 196.429 154.641 196.437 154.589 196.45 C154.537 196.481 154.507 196.496 154.47 196.518 C154.426 196.532 154.336 196.584 154.203 196.674 C154.086 196.778 153.981 196.881 153.907 197 C153.833 197.111 153.781 197.244 153.766 197.393 Z M163.857 199.649 C163.442 199.649 163.101 199.811 162.819 200.145 C162.686 200.272 162.574 200.426 162.485 200.597 C162.352 200.871 162.286 201.175 162.286 201.51 L162.286 203.037 L165.444 203.037 L165.444 201.51 C165.444 201.169 165.377 200.865 165.244 200.597 C165.162 200.442 165.05 200.285 164.903 200.145 C164.62 199.811 164.271 199.649 163.857 199.649 Z M167.023 197.897 C167.023 197.23 166.659 196.689 165.933 196.251 C165.6 196.043 165.259 195.887 164.931 195.79 C164.591 195.701 164.22 195.657 163.82 195.657 C163.033 195.657 162.322 195.857 161.685 196.251 C160.957 196.681 160.595 197.223 160.595 197.897 C160.595 198.49 161.018 199.002 161.877 199.44 L162.403 199.129 L163.019 198.787 C163.242 198.691 163.508 198.632 163.82 198.632 L163.939 198.632 L164.086 198.647 L164.36 198.691 L164.517 198.743 C164.576 198.75 164.636 198.78 164.688 198.825 L165.146 199.077 L165.741 199.44 C166.592 199.025 167.023 198.506 167.023 197.897 Z M161.01 200.642 C159.408 200.323 158.607 199.471 158.607 198.075 C158.607 197.111 159.23 196.324 160.461 195.731 C160.69 195.635 160.943 195.531 161.224 195.427 C161.5 195.331 161.788 195.242 162.093 195.161 C162.715 194.997 163.302 194.915 163.857 194.915 C164.435 194.915 165.006 194.997 165.563 195.145 C165.829 195.212 166.096 195.301 166.377 195.406 L167.149 195.731 C168.387 196.31 169.003 197.097 169.003 198.075 C169.003 199.471 168.202 200.323 166.607 200.642 L166.607 203.95 L161.01 203.95 L161.01 200.642 Z M180.013 202.859 L180.013 196.555 C180.013 196.361 179.924 196.207 179.753 196.066 C179.59 195.947 179.389 195.887 179.153 195.887 C178.953 195.887 178.753 195.947 178.56 196.066 C178.381 196.198 178.292 196.376 178.292 196.6 L178.292 202.859 C178.345 203.327 178.633 203.563 179.175 203.563 C179.375 203.563 179.567 203.505 179.745 203.378 C179.924 203.259 180.013 203.09 180.013 202.859 Z M171.404 202.838 C171.404 203.037 171.493 203.223 171.657 203.394 L171.901 203.512 L172.228 203.563 C172.457 203.563 172.65 203.505 172.82 203.378 C172.984 203.238 173.058 203.066 173.058 202.859 L173.058 196.555 C173.058 196.347 172.977 196.191 172.806 196.066 C172.635 195.947 172.443 195.887 172.228 195.887 C172.027 195.887 171.835 195.947 171.657 196.066 C171.48 196.191 171.397 196.361 171.397 196.6 L171.404 202.838 Z M181.711 195.984 L181.711 202.919 C181.711 203.223 181.644 203.474 181.496 203.661 C181.355 203.854 181.14 203.95 180.866 203.95 L177.522 203.95 C177.232 203.95 176.995 203.846 176.824 203.638 C176.632 203.423 176.543 203.179 176.543 202.889 L176.543 196.6 C176.543 196.376 176.455 196.184 176.277 196.029 C176.202 195.969 176.127 195.924 176.024 195.91 C175.921 195.895 175.795 195.887 175.66 195.887 L175.349 195.887 C175.237 195.91 175.141 195.94 175.068 195.992 C174.896 196.132 174.807 196.317 174.807 196.555 L174.807 203.03 C174.807 203.312 174.733 203.535 174.585 203.697 C174.423 203.868 174.23 203.95 173.992 203.95 L170.634 203.95 C170.36 203.95 170.136 203.854 169.967 203.661 C169.796 203.474 169.715 203.231 169.715 202.948 L169.715 195.895 C169.715 195.725 169.78 195.554 169.922 195.39 C170.056 195.257 170.241 195.198 170.463 195.198 L180.672 195.198 L180.939 195.198 C181.133 195.219 181.288 195.271 181.414 195.338 C181.526 195.413 181.607 195.51 181.651 195.62 C181.695 195.731 181.711 195.857 181.711 195.984 Z M195.22 200.398 C195.22 199.714 195.027 199.366 194.641 199.366 C194.463 199.366 194.279 199.455 194.085 199.626 C193.76 199.929 193.588 200.487 193.588 201.288 C193.588 201.733 193.626 202.095 193.715 202.355 C193.848 202.851 194.048 203.104 194.3 203.104 C194.724 203.104 194.997 202.8 195.138 202.199 L195.175 201.976 L195.197 201.702 L195.197 201.569 L195.213 200.976 L195.22 200.398 Z M191.32 196.392 C191.267 196.088 191.061 195.931 190.689 195.931 L189.577 195.984 L189.74 195.331 L193.663 195.28 L191.919 199.892 L192.416 200.033 C192.662 199.529 192.981 199.166 193.389 198.943 C193.781 198.729 194.286 198.624 194.909 198.624 L195.983 198.654 L196.116 198.528 C196.184 198.476 196.258 198.446 196.332 198.446 C196.472 198.446 196.598 198.528 196.703 198.691 C196.814 198.854 196.865 199.18 196.865 199.686 L196.865 203.646 L195.776 203.646 L195.339 203.327 C195.182 203.498 194.939 203.646 194.611 203.757 L194.166 203.905 C194.048 203.935 193.937 203.95 193.834 203.95 C193.506 203.95 193.21 203.898 192.935 203.802 C192.655 203.705 192.462 203.579 192.358 203.415 C192.247 203.259 192.15 203.037 192.076 202.749 L192.009 202.341 L191.98 201.881 C191.98 201.702 191.987 201.561 192.009 201.458 L192.016 201.242 L192.076 200.96 L191.594 200.835 L190.363 203.912 L188.117 203.912 C188.25 203.808 188.435 203.563 188.673 203.186 L188.962 202.63 L189.266 201.954 L189.83 200.553 L190.422 199.04 C191.023 197.555 191.32 196.674 191.32 196.392 Z M202.151 203.95 L197.822 203.95 L197.822 195.212 L201.863 195.234 L201.589 195.887 L199.521 196.058 L199.521 199.099 C200.825 199.099 201.847 199.471 202.589 200.211 C203.234 200.835 203.553 201.554 203.553 202.362 C203.553 202.823 203.45 203.186 203.242 203.453 C202.983 203.786 202.619 203.95 202.151 203.95 Z M201.758 201.762 C201.758 201.309 201.529 200.887 201.07 200.494 C200.602 200.107 200.082 199.915 199.521 199.915 L199.521 203.342 C200.313 203.342 200.883 203.216 201.232 202.964 C201.581 202.725 201.758 202.318 201.758 201.762 Z M214.675 196.636 L214.675 202.8 C214.675 203.037 214.579 203.216 214.393 203.348 C214.192 203.467 214.008 203.528 213.851 203.528 C213.674 203.528 213.467 203.46 213.236 203.327 C213.147 203.238 213.088 203.163 213.058 203.104 C213.014 203.037 212.992 202.948 212.992 202.845 L212.984 196.681 C212.984 196.458 213.066 196.287 213.236 196.161 C213.399 196.043 213.585 195.984 213.807 195.984 C214.097 195.984 214.319 196.036 214.467 196.139 C214.6 196.251 214.675 196.422 214.675 196.636 Z M215.483 195.242 L212.005 195.257 C211.465 195.257 211.19 195.51 211.19 196.02 L211.19 202.845 C211.19 203.06 211.116 203.238 210.968 203.394 C210.885 203.453 210.797 203.483 210.701 203.505 C210.605 203.52 210.501 203.528 210.382 203.528 C210.212 203.528 210.093 203.52 210.026 203.498 C209.951 203.49 209.863 203.453 209.752 203.378 C209.574 203.193 209.477 203.001 209.477 202.8 L209.477 196.058 C209.477 195.798 209.426 195.605 209.322 195.465 C209.21 195.331 209.032 195.271 208.788 195.271 L205.288 195.271 C205.007 195.271 204.761 195.36 204.569 195.547 C204.369 195.731 204.272 195.961 204.272 196.235 L204.272 203.066 C204.272 203.327 204.369 203.528 204.562 203.697 C204.747 203.868 204.993 203.95 205.311 203.95 L215.557 203.95 C215.831 203.95 216.053 203.868 216.224 203.697 C216.381 203.512 216.461 203.282 216.461 203.008 L216.461 196.177 C216.461 196.02 216.447 195.895 216.402 195.798 C216.365 195.709 216.298 195.628 216.209 195.547 C216.017 195.376 215.772 195.28 215.483 195.242 Z M206.067 202.711 L206.067 196.717 C206.067 196.496 206.149 196.317 206.311 196.198 C206.408 196.125 206.497 196.073 206.586 196.029 C206.668 195.999 206.771 195.984 206.889 195.984 C207.157 195.984 207.371 196.05 207.542 196.177 C207.675 196.281 207.75 196.45 207.75 196.681 L207.75 202.8 C207.75 203.008 207.661 203.186 207.497 203.327 C207.313 203.467 207.112 203.542 206.889 203.542 C206.674 203.542 206.482 203.453 206.327 203.282 C206.156 203.126 206.067 202.934 206.067 202.711 Z M222.387 196.139 L222.371 199.173 L225.396 199.173 C225.41 199.18 225.419 199.188 225.426 199.188 C225.485 199.218 225.559 199.262 225.633 199.314 C225.67 199.381 225.714 199.499 225.759 199.656 L225.597 203.935 L224.025 203.935 L224.025 203.223 L224.017 201.976 L224.001 200.709 L224.001 200.152 C224.001 199.997 223.912 199.878 223.727 199.789 C223.535 199.7 223.335 199.656 223.135 199.656 C222.623 199.656 222.371 199.789 222.371 200.049 L222.371 203.935 L220.585 203.935 L220.585 200.049 C220.585 199.789 220.332 199.656 219.821 199.656 L219.643 199.656 L219.486 199.686 C219.45 199.686 219.353 199.714 219.199 199.789 C219.035 199.871 218.953 199.989 218.953 200.152 L218.953 203.95 L217.299 203.95 L217.188 199.649 C217.188 199.566 217.24 199.471 217.336 199.358 C217.425 199.256 217.53 199.188 217.619 199.159 L218.011 199.159 L219.11 199.151 L220.132 199.136 L220.598 199.136 L220.598 196.118 C220.598 195.984 220.577 195.88 220.525 195.79 C220.465 195.709 220.383 195.642 220.266 195.584 L219.59 195.709 L219.59 194.96 L220.533 194.96 L220.874 194.968 L221.029 194.989 L221.177 195.041 C221.334 195.093 221.46 195.123 221.541 195.123 C221.607 195.123 221.681 195.108 221.755 195.064 L222.068 194.968 C222.171 194.938 222.311 194.931 222.504 194.931 L223.372 194.931 L223.372 195.68 L222.779 195.561 C222.69 195.605 222.616 195.664 222.556 195.754 L222.467 195.895 L222.387 196.139 Z M236.777 202.859 L236.777 196.555 C236.777 196.361 236.695 196.207 236.525 196.066 C236.353 195.947 236.154 195.887 235.918 195.887 C235.717 195.887 235.516 195.947 235.324 196.066 C235.146 196.198 235.064 196.376 235.064 196.6 L235.064 202.859 C235.108 203.327 235.405 203.563 235.947 203.563 C236.138 203.563 236.332 203.505 236.51 203.378 C236.688 203.259 236.777 203.09 236.777 202.859 Z M228.169 202.838 C228.169 203.037 228.258 203.223 228.429 203.394 L228.666 203.512 L228.991 203.563 C229.222 203.563 229.415 203.505 229.585 203.378 C229.749 203.238 229.829 203.066 229.829 202.859 L229.829 196.555 C229.829 196.347 229.74 196.191 229.578 196.066 C229.4 195.947 229.206 195.887 228.991 195.887 C228.792 195.887 228.607 195.947 228.429 196.066 C228.251 196.191 228.162 196.361 228.162 196.6 L228.169 202.838 Z M238.483 195.984 L238.483 202.919 C238.483 203.223 238.408 203.474 238.26 203.661 C238.118 203.854 237.919 203.95 237.637 203.95 L234.285 203.95 C233.997 203.95 233.767 203.846 233.589 203.638 C233.404 203.423 233.307 203.179 233.307 202.889 L233.307 196.6 C233.307 196.376 233.218 196.184 233.039 196.029 C232.974 195.969 232.885 195.924 232.789 195.91 C232.684 195.895 232.566 195.887 232.424 195.887 L232.112 195.887 C232.01 195.91 231.913 195.94 231.832 195.992 C231.661 196.132 231.579 196.317 231.579 196.555 L231.579 203.03 C231.579 203.312 231.505 203.535 231.35 203.697 C231.186 203.868 230.995 203.95 230.756 203.95 L227.398 203.95 C227.123 203.95 226.901 203.854 226.738 203.661 C226.568 203.474 226.486 203.231 226.486 202.948 L226.486 195.895 C226.486 195.725 226.552 195.554 226.686 195.39 C226.827 195.257 227.004 195.198 227.227 195.198 L237.444 195.198 L237.711 195.198 C237.897 195.219 238.059 195.271 238.179 195.338 C238.289 195.413 238.37 195.51 238.423 195.62 C238.459 195.731 238.483 195.857 238.483 195.984 Z M244.436 196.139 L244.421 199.173 L247.447 199.173 C247.461 199.18 247.468 199.188 247.475 199.188 C247.535 199.218 247.601 199.262 247.683 199.314 C247.727 199.381 247.765 199.499 247.809 199.656 L247.653 203.935 L246.075 203.935 L246.075 203.223 L246.068 201.976 L246.052 200.709 L246.052 200.152 C246.052 199.997 245.963 199.878 245.778 199.789 C245.585 199.7 245.385 199.656 245.185 199.656 C244.674 199.656 244.421 199.789 244.421 200.049 L244.421 203.935 L242.635 203.935 L242.635 200.049 C242.635 199.789 242.382 199.656 241.87 199.656 L241.693 199.656 L241.537 199.686 C241.507 199.686 241.404 199.714 241.248 199.789 C241.085 199.871 241.003 199.989 241.003 200.152 L241.003 203.95 L239.349 203.95 L239.238 199.649 C239.238 199.566 239.291 199.471 239.386 199.358 C239.476 199.256 239.572 199.188 239.676 199.159 L240.061 199.159 L241.158 199.151 L242.181 199.136 L242.649 199.136 L242.649 196.118 C242.649 195.984 242.619 195.88 242.574 195.79 C242.516 195.709 242.434 195.642 242.316 195.584 L241.647 195.709 L241.647 194.96 L242.583 194.96 L242.923 194.968 L243.08 194.989 L243.227 195.041 C243.383 195.093 243.509 195.123 243.59 195.123 C243.657 195.123 243.732 195.108 243.805 195.064 L244.124 194.968 C244.221 194.938 244.362 194.931 244.554 194.931 L245.422 194.931 L245.422 195.68 L244.821 195.561 C244.739 195.605 244.666 195.664 244.606 195.754 L244.517 195.895 L244.436 196.139 Z" transform="translate(241.013, 117.638)"/>
 </g>
</svg>
